<svg width="36" height="19" viewBox="0 0 36 19" fill="none" xmlns="http://www.w3.org/2000/svg">
<path fill-rule="evenodd" clip-rule="evenodd" d="M12.4866 2.76114C13.1109 2.51957 14.3427 2.6675 14.6678 3.40307C14.9449 4.03007 15.1829 5.08729 15.1959 4.862C15.2271 4.36122 15.1647 3.27822 15.3741 2.71229C15.5263 2.29972 15.8254 1.91157 16.2663 1.7745C16.637 1.65779 17.0727 1.61707 17.4577 1.69986C17.8648 1.78672 18.2928 2.08936 18.4527 2.37707C18.9236 3.22257 18.9314 4.95429 18.9535 4.862C19.0367 4.49286 19.0445 3.19407 19.3216 2.71229C19.505 2.39336 19.968 2.10836 20.2151 2.06222C20.5975 1.99164 21.0684 1.96993 21.469 2.05136C21.7928 2.11786 22.2312 2.51822 22.3495 2.71229C22.6344 3.17914 22.7944 4.49829 22.8425 4.96243C22.8633 5.15379 22.9387 4.42907 23.2236 3.96357C23.7516 3.09636 25.622 2.92807 25.6922 4.83079C25.7261 5.71836 25.7182 5.67764 25.7182 6.27479C25.7182 6.97507 25.7026 7.3985 25.6662 7.90607C25.6272 8.44757 25.5153 9.67579 25.3528 10.2702C25.2409 10.6787 24.8702 11.5975 24.5034 12.1485C24.5034 12.1485 23.1065 13.8449 22.9543 14.6076C22.8022 15.3717 22.8529 15.3771 22.8217 15.9173C22.7918 16.4588 22.9791 17.1699 22.9791 17.1699C22.9791 17.1699 21.9372 17.3111 21.374 17.2161C20.8655 17.1319 20.236 16.0761 20.0734 15.7531C19.8497 15.3079 19.3723 15.3934 19.1863 15.7219C18.895 16.2416 18.2642 17.174 17.8206 17.2324C16.9505 17.3464 15.1478 17.2731 13.7365 17.2595C13.7365 17.2595 13.9772 15.8874 13.4413 15.4165C13.0446 15.0636 12.3617 14.3525 11.9533 13.9779L10.8712 12.728C10.5031 12.2394 9.56792 11.4672 9.25446 10.0341C8.97742 8.76379 9.00473 8.14086 9.30259 7.63193C9.60434 7.11486 10.174 6.83257 10.4134 6.78372C10.6839 6.72672 11.3134 6.73079 11.5514 6.86786C11.8415 7.03479 11.9585 7.08364 12.1862 7.3985C12.4853 7.81514 12.592 8.01736 12.4632 7.56272C12.3643 7.20714 12.0444 6.75522 11.8987 6.24629C11.7569 5.75636 11.3771 4.9665 11.4045 4.17529C11.4149 3.87536 11.5384 3.12893 12.4866 2.76114Z" fill="white"/>
<path fill-rule="evenodd" clip-rule="evenodd" d="M12.4866 2.76114C13.1109 2.51957 14.3427 2.6675 14.6678 3.40307C14.9449 4.03007 15.1829 5.08729 15.1959 4.862C15.2271 4.36122 15.1647 3.27822 15.3741 2.71229C15.5263 2.29972 15.8254 1.91157 16.2663 1.7745C16.637 1.65779 17.0727 1.61707 17.4577 1.69986C17.8648 1.78672 18.2928 2.08936 18.4527 2.37707C18.9236 3.22257 18.9314 4.95429 18.9535 4.862C19.0367 4.49286 19.0445 3.19407 19.3216 2.71229C19.505 2.39336 19.968 2.10836 20.2151 2.06222C20.5975 1.99164 21.0684 1.96993 21.469 2.05136C21.7928 2.11786 22.2312 2.51822 22.3495 2.71229C22.6344 3.17914 22.7944 4.49829 22.8425 4.96243C22.8633 5.15379 22.9387 4.42907 23.2236 3.96357C23.7516 3.09636 25.622 2.92807 25.6922 4.83079C25.7261 5.71836 25.7182 5.67764 25.7182 6.27479C25.7182 6.97507 25.7026 7.3985 25.6662 7.90607C25.6272 8.44757 25.5153 9.67579 25.3528 10.2702C25.2409 10.6787 24.8702 11.5975 24.5034 12.1485C24.5034 12.1485 23.1065 13.8449 22.9543 14.6076C22.8022 15.3717 22.8529 15.3771 22.8217 15.9173C22.7918 16.4588 22.9791 17.1699 22.9791 17.1699C22.9791 17.1699 21.9372 17.3111 21.374 17.2161C20.8655 17.1319 20.236 16.0761 20.0734 15.7531C19.8497 15.3079 19.3723 15.3934 19.1863 15.7219C18.895 16.2416 18.2642 17.174 17.8206 17.2324C16.9505 17.3464 15.1478 17.2731 13.7365 17.2595C13.7365 17.2595 13.9772 15.8874 13.4413 15.4165C13.0446 15.0636 12.3617 14.3525 11.9533 13.9779L10.8712 12.728C10.5031 12.2394 9.56792 11.4672 9.25446 10.0341C8.97742 8.76379 9.00473 8.14086 9.30259 7.63193C9.60434 7.11486 10.174 6.83257 10.4134 6.78372C10.6839 6.72672 11.3134 6.73079 11.5514 6.86786C11.8415 7.03479 11.9585 7.08364 12.1862 7.3985C12.4853 7.81514 12.592 8.01736 12.4632 7.56272C12.3643 7.20714 12.0444 6.75522 11.8987 6.24629C11.7569 5.75636 11.3771 4.9665 11.4045 4.17529C11.4149 3.87536 11.5384 3.12893 12.4866 2.76114Z" stroke="black" stroke-width="1.01786" stroke-linejoin="round"/>
<path d="M21.5811 13.2085V8.51416" stroke="black" stroke-width="1.01786" stroke-linecap="round"/>
<path d="M18.9621 13.2226L18.9404 8.50928" stroke="black" stroke-width="1.01786" stroke-linecap="round"/>
<path d="M16.3643 8.55518L16.3928 13.2047" stroke="black" stroke-width="1.01786" stroke-linecap="round"/>
<path d="M5.31299 13.5279V5.09033L1.00023 9.02787L5.31299 13.5279Z" fill="white" stroke="black" stroke-width="0.641256"/>
<path d="M30.2671 13.5274V5.08984L34.5799 9.02738L30.2671 13.5274Z" fill="white" stroke="black" stroke-width="0.641256"/>
</svg>
