<svg width="36" height="19" viewBox="0 0 36 19" fill="none" xmlns="http://www.w3.org/2000/svg">
<path fill-rule="evenodd" clip-rule="evenodd" d="M12.4871 2.76114C13.1114 2.51957 14.3432 2.6675 14.6683 3.40307C14.9454 4.03007 15.1834 5.08729 15.1964 4.862C15.2276 4.36122 15.1652 3.27822 15.3746 2.71229C15.5268 2.29972 15.8259 1.91157 16.2668 1.7745C16.6375 1.65779 17.0732 1.61707 17.4582 1.69986C17.8653 1.78672 18.2933 2.08936 18.4532 2.37707C18.9241 3.22257 18.9319 4.95429 18.954 4.862C19.0372 4.49286 19.045 3.19407 19.3221 2.71229C19.5055 2.39336 19.9685 2.10836 20.2156 2.06222C20.598 1.99164 21.0689 1.96993 21.4695 2.05136C21.7933 2.11786 22.2317 2.51822 22.35 2.71229C22.6349 3.17914 22.7949 4.49829 22.843 4.96243C22.8638 5.15379 22.9392 4.42907 23.2241 3.96357C23.7521 3.09636 25.6225 2.92807 25.6927 4.83079C25.7266 5.71836 25.7187 5.67764 25.7187 6.27479C25.7187 6.97507 25.7031 7.3985 25.6667 7.90607C25.6277 8.44757 25.5158 9.67579 25.3533 10.2702C25.2414 10.6787 24.8707 11.5975 24.5039 12.1485C24.5039 12.1485 23.107 13.8449 22.9548 14.6076C22.8027 15.3717 22.8534 15.3771 22.8222 15.9173C22.7923 16.4588 22.9796 17.1699 22.9796 17.1699C22.9796 17.1699 21.9377 17.3111 21.3745 17.2161C20.866 17.1319 20.2365 16.0761 20.0739 15.7531C19.8502 15.3079 19.3728 15.3934 19.1868 15.7219C18.8955 16.2416 18.2647 17.174 17.8211 17.2324C16.951 17.3464 15.1483 17.2731 13.737 17.2595C13.737 17.2595 13.9777 15.8874 13.4418 15.4165C13.0451 15.0636 12.3622 14.3525 11.9538 13.9779L10.8717 12.728C10.5036 12.2394 9.56841 11.4672 9.25495 10.0341C8.97791 8.76379 9.00522 8.14086 9.30308 7.63193C9.60483 7.11486 10.1745 6.83257 10.4139 6.78372C10.6844 6.72672 11.3139 6.73079 11.5519 6.86786C11.842 7.03479 11.959 7.08364 12.1867 7.3985C12.4858 7.81514 12.5925 8.01736 12.4637 7.56272C12.3648 7.20714 12.0449 6.75522 11.8992 6.24629C11.7574 5.75636 11.3776 4.9665 11.405 4.17529C11.4154 3.87536 11.5389 3.12893 12.4871 2.76114Z" fill="white"/>
<path fill-rule="evenodd" clip-rule="evenodd" d="M12.4871 2.76114C13.1114 2.51957 14.3432 2.6675 14.6683 3.40307C14.9454 4.03007 15.1834 5.08729 15.1964 4.862C15.2276 4.36122 15.1652 3.27822 15.3746 2.71229C15.5268 2.29972 15.8259 1.91157 16.2668 1.7745C16.6375 1.65779 17.0732 1.61707 17.4582 1.69986C17.8653 1.78672 18.2933 2.08936 18.4532 2.37707C18.9241 3.22257 18.9319 4.95429 18.954 4.862C19.0372 4.49286 19.045 3.19407 19.3221 2.71229C19.5055 2.39336 19.9685 2.10836 20.2156 2.06222C20.598 1.99164 21.0689 1.96993 21.4695 2.05136C21.7933 2.11786 22.2317 2.51822 22.35 2.71229C22.6349 3.17914 22.7949 4.49829 22.843 4.96243C22.8638 5.15379 22.9392 4.42907 23.2241 3.96357C23.7521 3.09636 25.6225 2.92807 25.6927 4.83079C25.7266 5.71836 25.7187 5.67764 25.7187 6.27479C25.7187 6.97507 25.7031 7.3985 25.6667 7.90607C25.6277 8.44757 25.5158 9.67579 25.3533 10.2702C25.2414 10.6787 24.8707 11.5975 24.5039 12.1485C24.5039 12.1485 23.107 13.8449 22.9548 14.6076C22.8027 15.3717 22.8534 15.3771 22.8222 15.9173C22.7923 16.4588 22.9796 17.1699 22.9796 17.1699C22.9796 17.1699 21.9377 17.3111 21.3745 17.2161C20.866 17.1319 20.2365 16.0761 20.0739 15.7531C19.8502 15.3079 19.3728 15.3934 19.1868 15.7219C18.8955 16.2416 18.2647 17.174 17.8211 17.2324C16.951 17.3464 15.1483 17.2731 13.737 17.2595C13.737 17.2595 13.9777 15.8874 13.4418 15.4165C13.0451 15.0636 12.3622 14.3525 11.9538 13.9779L10.8717 12.728C10.5036 12.2394 9.56841 11.4672 9.25495 10.0341C8.97791 8.76379 9.00522 8.14086 9.30308 7.63193C9.60483 7.11486 10.1745 6.83257 10.4139 6.78372C10.6844 6.72672 11.3139 6.73079 11.5519 6.86786C11.842 7.03479 11.959 7.08364 12.1867 7.3985C12.4858 7.81514 12.5925 8.01736 12.4637 7.56272C12.3648 7.20714 12.0449 6.75522 11.8992 6.24629C11.7574 5.75636 11.3776 4.9665 11.405 4.17529C11.4154 3.87536 11.5389 3.12893 12.4871 2.76114Z" stroke="black" stroke-width="1.01786" stroke-linejoin="round"/>
<path d="M21.582 13.2085V8.51416" stroke="black" stroke-width="1.01786" stroke-linecap="round"/>
<path d="M18.9612 13.2226L18.9395 8.50928" stroke="black" stroke-width="1.01786" stroke-linecap="round"/>
<path d="M16.3652 8.55518L16.3937 13.2047" stroke="black" stroke-width="1.01786" stroke-linecap="round"/>
<path d="M5.31276 13.5279V5.09033L1 9.02787L5.31276 13.5279Z" fill="#666C7C" stroke="#666C7C" stroke-width="0.641256"/>
<path d="M30.2676 13.5274V5.08984L34.5804 9.02738L30.2676 13.5274Z" fill="white" stroke="black" stroke-width="0.641256"/>
</svg>
