<svg width="3144" height="195" viewBox="0 0 3144 195" preserveAspectRatio="none" fill="none" xmlns="http://www.w3.org/2000/svg">
<path d="M0 180H7V195H0V180Z" fill="#B087F0"/>
<path d="M14 164H21V195H14V164Z" fill="#B087F0"/>
<path d="M28 106H35V195H28V106Z" fill="#B087F0"/>
<path d="M42 40H49V195H42V40Z" fill="#B087F0"/>
<path d="M56 65H63V195H56V65Z" fill="#B087F0"/>
<path d="M70 51H77V195H70V51Z" fill="#B087F0"/>
<path d="M84 40H91V195H84V40Z" fill="#B087F0"/>
<path d="M98 65H105V195H98V65Z" fill="#B087F0"/>
<path d="M112 83H119V195H112V83Z" fill="#B087F0"/>
<path d="M126 0H133V195H126V0Z" fill="#B087F0"/>
<path d="M140 40H147V195H140V40Z" fill="#B087F0"/>
<path d="M154 71H161V195H154V71Z" fill="#B087F0"/>
<path d="M168 71H175V195H168V71Z" fill="#B087F0"/>
<path d="M182 101H189V195H182V101Z" fill="#B087F0"/>
<path d="M197 23H204V195H197V23Z" fill="#B087F0"/>
<path d="M211 65H218V195H211V65Z" fill="#B087F0"/>
<path d="M225 40H232V195H225V40Z" fill="#B087F0"/>
<path d="M239 40H246V195H239V40Z" fill="#B087F0"/>
<path d="M253 65H260V195H253V65Z" fill="#B087F0"/>
<path d="M267 51H274V195H267V51Z" fill="#B087F0"/>
<path d="M281 40H288V195H281V40Z" fill="#B087F0"/>
<path d="M295 65H302V195H295V65Z" fill="#B087F0"/>
<path d="M309 83H316V195H309V83Z" fill="#B087F0"/>
<path d="M323 0H330V195H323V0Z" fill="#B087F0"/>
<path d="M337 40H344V195H337V40Z" fill="#B087F0"/>
<path d="M351 71H358V195H351V71Z" fill="#B087F0"/>
<path d="M365 71H372V195H365V71Z" fill="#B087F0"/>
<path d="M379 101H386V195H379V101Z" fill="#B087F0"/>
<path d="M394 23H401V195H394V23Z" fill="#B087F0"/>
<path d="M408 65H415V195H408V65Z" fill="#B087F0"/>
<path d="M422 40H429V195H422V40Z" fill="#B087F0"/>
<path d="M436 40H443V195H436V40Z" fill="#B087F0"/>
<path d="M450 65H457V195H450V65Z" fill="#B087F0"/>
<path d="M464 51H471V195H464V51Z" fill="#B087F0"/>
<path d="M478 40H485V195H478V40Z" fill="#B087F0"/>
<path d="M492 65H499V195H492V65Z" fill="#B087F0"/>
<path d="M506 83H513V195H506V83Z" fill="#B087F0"/>
<path d="M520 0H527V195H520V0Z" fill="#B087F0"/>
<path d="M534 40H541V195H534V40Z" fill="#B087F0"/>
<path d="M548 71H555V195H548V71Z" fill="#B087F0"/>
<path d="M562 71H569V195H562V71Z" fill="#B087F0"/>
<path d="M576 101H583V195H576V101Z" fill="#B087F0"/>
<path d="M591 23H598V195H591V23Z" fill="#B087F0"/>
<path d="M605 65H612V195H605V65Z" fill="#B087F0"/>
<path d="M619 40H626V195H619V40Z" fill="#B087F0"/>
<path d="M633 40H640V195H633V40Z" fill="#B087F0"/>
<path d="M647 65H654V195H647V65Z" fill="#B087F0"/>
<path d="M661 51H668V195H661V51Z" fill="#B087F0"/>
<path d="M675 40H682V195H675V40Z" fill="#B087F0"/>
<path d="M689 65H696V195H689V65Z" fill="#B087F0"/>
<path d="M703 83H710V195H703V83Z" fill="#B087F0"/>
<path d="M717 0H724V195H717V0Z" fill="#B087F0"/>
<path d="M731 40H738V195H731V40Z" fill="#B087F0"/>
<path d="M745 71H752V195H745V71Z" fill="#B087F0"/>
<path d="M759 71H766V195H759V71Z" fill="#B087F0"/>
<path d="M773 101H780V195H773V101Z" fill="#B087F0"/>
<path d="M788 23H795V195H788V23Z" fill="#B087F0"/>
<path d="M802 65H809V195H802V65Z" fill="#B087F0"/>
<path d="M816 40H823V195H816V40Z" fill="#B087F0"/>
<path d="M830 40H837V195H830V40Z" fill="#B087F0"/>
<path d="M844 65H851V195H844V65Z" fill="#B087F0"/>
<path d="M858 51H865V195H858V51Z" fill="#B087F0"/>
<path d="M872 40H879V195H872V40Z" fill="#B087F0"/>
<path d="M886 65H893V195H886V65Z" fill="#B087F0"/>
<path d="M900 83H907V195H900V83Z" fill="#B087F0"/>
<path d="M914 0H921V195H914V0Z" fill="#B087F0"/>
<path d="M928 40H935V195H928V40Z" fill="#B087F0"/>
<path d="M942 71H949V195H942V71Z" fill="#B087F0"/>
<path d="M956 71H963V195H956V71Z" fill="#B087F0"/>
<path d="M970 101H977V195H970V101Z" fill="#B087F0"/>
<path d="M985 23H992V195H985V23Z" fill="#B087F0"/>
<path d="M999 65H1006V195H999V65Z" fill="#B087F0"/>
<path d="M1013 40H1020V195H1013V40Z" fill="#B087F0"/>
<path d="M1027 40H1034V195H1027V40Z" fill="#B087F0"/>
<path d="M1041 65H1048V195H1041V65Z" fill="#B087F0"/>
<path d="M1055 51H1062V195H1055V51Z" fill="#B087F0"/>
<path d="M1069 40H1076V195H1069V40Z" fill="#B087F0"/>
<path d="M1083 65H1090V195H1083V65Z" fill="#B087F0"/>
<path d="M1097 83H1104V195H1097V83Z" fill="#B087F0"/>
<path d="M1111 0H1118V195H1111V0Z" fill="#B087F0"/>
<path d="M1125 40H1132V195H1125V40Z" fill="#B087F0"/>
<path d="M1139 71H1146V195H1139V71Z" fill="#B087F0"/>
<path d="M1153 71H1160V195H1153V71Z" fill="#B087F0"/>
<path d="M1167 101H1174V195H1167V101Z" fill="#B087F0"/>
<path d="M1182 23H1189V195H1182V23Z" fill="#B087F0"/>
<path d="M1196 65H1203V195H1196V65Z" fill="#B087F0"/>
<path d="M1210 40H1217V195H1210V40Z" fill="#B087F0"/>
<path d="M1224 40H1231V195H1224V40Z" fill="#B087F0"/>
<path d="M1238 65H1245V195H1238V65Z" fill="#B087F0"/>
<path d="M1252 51H1259V195H1252V51Z" fill="#B087F0"/>
<path d="M1266 40H1273V195H1266V40Z" fill="#B087F0"/>
<path d="M1280 65H1287V195H1280V65Z" fill="#B087F0"/>
<path d="M1294 83H1301V195H1294V83Z" fill="#B087F0"/>
<path d="M1308 0H1315V195H1308V0Z" fill="#B087F0"/>
<path d="M1322 40H1329V195H1322V40Z" fill="#B087F0"/>
<path d="M1336 71H1343V195H1336V71Z" fill="#B087F0"/>
<path d="M1350 71H1357V195H1350V71Z" fill="#B087F0"/>
<path d="M1364 101H1371V195H1364V101Z" fill="#B087F0"/>
<path d="M1379 23H1386V195H1379V23Z" fill="#B087F0"/>
<path d="M1393 65H1400V195H1393V65Z" fill="#B087F0"/>
<path d="M1407 40H1414V195H1407V40Z" fill="#B087F0"/>
<path d="M1421 40H1428V195H1421V40Z" fill="#B087F0"/>
<path d="M1435 65H1442V195H1435V65Z" fill="#B087F0"/>
<path d="M1449 51H1456V195H1449V51Z" fill="#B087F0"/>
<path d="M1463 40H1470V195H1463V40Z" fill="#B087F0"/>
<path d="M1477 65H1484V195H1477V65Z" fill="#B087F0"/>
<path d="M1491 83H1498V195H1491V83Z" fill="#B087F0"/>
<path d="M1505 0H1512V195H1505V0Z" fill="#B087F0"/>
<path d="M1519 40H1526V195H1519V40Z" fill="#B087F0"/>
<path d="M1533 71H1540V195H1533V71Z" fill="#B087F0"/>
<path d="M1547 71H1554V195H1547V71Z" fill="#B087F0"/>
<path d="M1561 101H1568V195H1561V101Z" fill="#B087F0"/>
<path d="M1576 23H1583V195H1576V23Z" fill="#B087F0"/>
<path d="M1590 65H1597V195H1590V65Z" fill="#B087F0"/>
<path d="M1604 40H1611V195H1604V40Z" fill="#B087F0"/>
<path d="M1618 40H1625V195H1618V40Z" fill="#B087F0"/>
<path d="M1632 65H1639V195H1632V65Z" fill="#B087F0"/>
<path d="M1646 51H1653V195H1646V51Z" fill="#B087F0"/>
<path d="M1660 40H1667V195H1660V40Z" fill="#B087F0"/>
<path d="M1674 65H1681V195H1674V65Z" fill="#B087F0"/>
<path d="M1688 83H1695V195H1688V83Z" fill="#B087F0"/>
<path d="M1702 0H1709V195H1702V0Z" fill="#B087F0"/>
<path d="M1716 40H1723V195H1716V40Z" fill="#B087F0"/>
<path d="M1730 71H1737V195H1730V71Z" fill="#B087F0"/>
<path d="M1744 71H1751V195H1744V71Z" fill="#B087F0"/>
<path d="M1758 101H1765V195H1758V101Z" fill="#B087F0"/>
<path d="M1773 23H1780V195H1773V23Z" fill="#B087F0"/>
<path d="M1787 65H1794V195H1787V65Z" fill="#B087F0"/>
<path d="M1801 40H1808V195H1801V40Z" fill="#B087F0"/>
<path d="M1815 40H1822V195H1815V40Z" fill="#B087F0"/>
<path d="M1829 65H1836V195H1829V65Z" fill="#B087F0"/>
<path d="M1843 51H1850V195H1843V51Z" fill="#B087F0"/>
<path d="M1857 40H1864V195H1857V40Z" fill="#B087F0"/>
<path d="M1871 65H1878V195H1871V65Z" fill="#B087F0"/>
<path d="M1885 83H1892V195H1885V83Z" fill="#B087F0"/>
<path d="M1899 0H1906V195H1899V0Z" fill="#B087F0"/>
<path d="M1913 40H1920V195H1913V40Z" fill="#B087F0"/>
<path d="M1927 71H1934V195H1927V71Z" fill="#B087F0"/>
<path d="M1941 71H1948V195H1941V71Z" fill="#B087F0"/>
<path d="M1955 101H1962V195H1955V101Z" fill="#B087F0"/>
<path d="M1970 23H1977V195H1970V23Z" fill="#B087F0"/>
<path d="M1984 65H1991V195H1984V65Z" fill="#B087F0"/>
<path d="M1998 40H2005V195H1998V40Z" fill="#B087F0"/>
<path d="M2012 40H2019V195H2012V40Z" fill="#B087F0"/>
<path d="M2026 65H2033V195H2026V65Z" fill="#B087F0"/>
<path d="M2040 51H2047V195H2040V51Z" fill="#B087F0"/>
<path d="M2054 40H2061V195H2054V40Z" fill="#B087F0"/>
<path d="M2068 65H2075V195H2068V65Z" fill="#B087F0"/>
<path d="M2082 83H2089V195H2082V83Z" fill="#B087F0"/>
<path d="M2096 0H2103V195H2096V0Z" fill="#B087F0"/>
<path d="M2110 40H2117V195H2110V40Z" fill="#B087F0"/>
<path d="M2124 71H2131V195H2124V71Z" fill="#B087F0"/>
<path d="M2138 71H2145V195H2138V71Z" fill="#B087F0"/>
<path d="M2152 101H2159V195H2152V101Z" fill="#B087F0"/>
<path d="M2167 23H2174V195H2167V23Z" fill="#B087F0"/>
<path d="M2181 65H2188V195H2181V65Z" fill="#B087F0"/>
<path d="M2195 40H2202V195H2195V40Z" fill="#B087F0"/>
<path d="M2209 40H2216V195H2209V40Z" fill="#B087F0"/>
<path d="M2223 65H2230V195H2223V65Z" fill="#B087F0"/>
<path d="M2237 51H2244V195H2237V51Z" fill="#B087F0"/>
<path d="M2251 40H2258V195H2251V40Z" fill="#B087F0"/>
<path d="M2265 65H2272V195H2265V65Z" fill="#B087F0"/>
<path d="M2279 83H2286V195H2279V83Z" fill="#B087F0"/>
<path d="M2293 0H2300V195H2293V0Z" fill="#B087F0"/>
<path d="M2307 40H2314V195H2307V40Z" fill="#B087F0"/>
<path d="M2321 71H2328V195H2321V71Z" fill="#B087F0"/>
<path d="M2335 71H2342V195H2335V71Z" fill="#B087F0"/>
<path d="M2349 101H2356V195H2349V101Z" fill="#B087F0"/>
<path d="M2364 23H2371V195H2364V23Z" fill="#B087F0"/>
<path d="M2378 65H2385V195H2378V65Z" fill="#B087F0"/>
<path d="M2392 40H2399V195H2392V40Z" fill="#B087F0"/>
<path d="M2406 40H2413V195H2406V40Z" fill="#B087F0"/>
<path d="M2420 65H2427V195H2420V65Z" fill="#B087F0"/>
<path d="M2434 51H2441V195H2434V51Z" fill="#B087F0"/>
<path d="M2448 40H2455V195H2448V40Z" fill="#B087F0"/>
<path d="M2462 65H2469V195H2462V65Z" fill="#B087F0"/>
<path d="M2476 83H2483V195H2476V83Z" fill="#B087F0"/>
<path d="M2490 0H2497V195H2490V0Z" fill="#B087F0"/>
<path d="M2504 40H2511V195H2504V40Z" fill="#B087F0"/>
<path d="M2518 71H2525V195H2518V71Z" fill="#B087F0"/>
<path d="M2532 71H2539V195H2532V71Z" fill="#B087F0"/>
<path d="M2546 101H2553V195H2546V101Z" fill="#B087F0"/>
<path d="M2561 23H2568V195H2561V23Z" fill="#B087F0"/>
<path d="M2575 65H2582V195H2575V65Z" fill="#B087F0"/>
<path d="M2589 40H2596V195H2589V40Z" fill="#B087F0"/>
<path d="M2603 40H2610V195H2603V40Z" fill="#B087F0"/>
<path d="M2617 65H2624V195H2617V65Z" fill="#B087F0"/>
<path d="M2631 51H2638V195H2631V51Z" fill="#B087F0"/>
<path d="M2645 40H2652V195H2645V40Z" fill="#B087F0"/>
<path d="M2659 65H2666V195H2659V65Z" fill="#B087F0"/>
<path d="M2673 83H2680V195H2673V83Z" fill="#B087F0"/>
<path d="M2687 0H2694V195H2687V0Z" fill="#B087F0"/>
<path d="M2701 40H2708V195H2701V40Z" fill="#B087F0"/>
<path d="M2715 71H2722V195H2715V71Z" fill="#B087F0"/>
<path d="M2729 71H2736V195H2729V71Z" fill="#B087F0"/>
<path d="M2743 101H2750V195H2743V101Z" fill="#B087F0"/>
<path d="M2758 23H2765V195H2758V23Z" fill="#B087F0"/>
<path d="M2772 65H2779V195H2772V65Z" fill="#B087F0"/>
<path d="M2786 40H2793V195H2786V40Z" fill="#B087F0"/>
<path d="M2800 40H2807V195H2800V40Z" fill="#B087F0"/>
<path d="M2814 65H2821V195H2814V65Z" fill="#B087F0"/>
<path d="M2828 51H2835V195H2828V51Z" fill="#B087F0"/>
<path d="M2842 40H2849V195H2842V40Z" fill="#B087F0"/>
<path d="M2856 65H2863V195H2856V65Z" fill="#B087F0"/>
<path d="M2870 83H2877V195H2870V83Z" fill="#B087F0"/>
<path d="M2884 0H2891V195H2884V0Z" fill="#B087F0"/>
<path d="M2898 40H2905V195H2898V40Z" fill="#B087F0"/>
<path d="M2912 71H2919V195H2912V71Z" fill="#B087F0"/>
<path d="M2926 71H2933V195H2926V71Z" fill="#B087F0"/>
<path d="M2940 101H2947V195H2940V101Z" fill="#B087F0"/>
<path d="M2955 23H2962V195H2955V23Z" fill="#B087F0"/>
<path d="M2969 65H2976V195H2969V65Z" fill="#B087F0"/>
<path d="M2983 40H2990V195H2983V40Z" fill="#B087F0"/>
<path d="M2997 40H3004V195H2997V40Z" fill="#B087F0"/>
<path d="M3011 65H3018V195H3011V65Z" fill="#B087F0"/>
<path d="M3025 51H3032V195H3025V51Z" fill="#B087F0"/>
<path d="M3039 40H3046V195H3039V40Z" fill="#B087F0"/>
<path d="M3053 65H3060V195H3053V65Z" fill="#B087F0"/>
<path d="M3067 83H3074V195H3067V83Z" fill="#B087F0"/>
<path d="M3081 0H3088V195H3081V0Z" fill="#B087F0"/>
<path d="M3095 40H3102V195H3095V40Z" fill="#B087F0"/>
<path d="M3109 71H3116V195H3109V71Z" fill="#B087F0"/>
<path d="M3123 71H3130V195H3123V71Z" fill="#B087F0"/>
<path d="M3137 101H3144V195H3137V101Z" fill="#B087F0"/>
</svg>
